<svg width="64" height="64" viewBox="0 0 64 64" fill="none" xmlns="http://www.w3.org/2000/svg">
    <g id="Light">
        <path
            d="M28.8002 16.5547C29.0085 16.7919 29.136 17.0822 29.1665 17.3881C29.1969 17.6941 29.1288 18.0015 28.9709 18.2707C27.7375 20.3938 27.0934 22.7735 27.0978 25.191C27.0978 33.2334 34.091 39.7456 42.7098 39.7456C43.8341 39.7456 44.9285 39.6356 45.9802 39.4256C46.3027 39.3602 46.6385 39.3852 46.9458 39.4976C47.2531 39.61 47.5183 39.8048 47.7083 40.0576C47.9088 40.3206 48.011 40.6382 47.9991 40.9612C47.9871 41.2842 47.8616 41.5945 47.6421 41.8437C45.9689 43.7707 43.8581 45.3233 41.4635 46.3883C39.069 47.4533 36.4512 48.0039 33.8008 48C23.966 48 16 40.5717 16 31.4193C16 24.531 20.5099 18.6228 26.9314 16.1186C27.2513 15.9919 27.6064 15.9659 27.9434 16.0445C28.2803 16.1231 28.581 16.3022 28.8002 16.5547V16.5547ZM26.3639 18.6208C23.8948 19.8625 21.8306 21.7082 20.3908 23.9617C18.9509 26.2152 18.1893 28.7924 18.1867 31.4193C18.1867 39.4596 25.182 45.9719 33.8008 45.9719C35.8648 45.9752 37.9089 45.5948 39.8149 44.8525C41.721 44.1103 43.451 43.021 44.905 41.6477C44.1861 41.7317 43.4543 41.7737 42.7098 41.7737C32.875 41.7737 24.9111 34.3454 24.9111 25.193C24.9111 22.8589 25.4274 20.6368 26.3639 18.6208V18.6208Z"
            fill="black" />
    </g>
    <g id="Dark">
        <path
            d="M32 38C30.4087 38 28.8826 37.3679 27.7574 36.2426C26.6321 35.1174 26 33.5913 26 32C26 30.4087 26.6321 28.8826 27.7574 27.7574C28.8826 26.6321 30.4087 26 32 26C33.5913 26 35.1174 26.6321 36.2426 27.7574C37.3679 28.8826 38 30.4087 38 32C38 33.5913 37.3679 35.1174 36.2426 36.2426C35.1174 37.3679 33.5913 38 32 38ZM32 40C34.1217 40 36.1566 39.1571 37.6569 37.6569C39.1571 36.1566 40 34.1217 40 32C40 29.8783 39.1571 27.8434 37.6569 26.3431C36.1566 24.8429 34.1217 24 32 24C29.8783 24 27.8434 24.8429 26.3431 26.3431C24.8429 27.8434 24 29.8783 24 32C24 34.1217 24.8429 36.1566 26.3431 37.6569C27.8434 39.1571 29.8783 40 32 40ZM32 16C32.2652 16 32.5196 16.1054 32.7071 16.2929C32.8946 16.4804 33 16.7348 33 17V21C33 21.2652 32.8946 21.5196 32.7071 21.7071C32.5196 21.8946 32.2652 22 32 22C31.7348 22 31.4804 21.8946 31.2929 21.7071C31.1054 21.5196 31 21.2652 31 21V17C31 16.7348 31.1054 16.4804 31.2929 16.2929C31.4804 16.1054 31.7348 16 32 16V16ZM32 42C32.2652 42 32.5196 42.1054 32.7071 42.2929C32.8946 42.4804 33 42.7348 33 43V47C33 47.2652 32.8946 47.5196 32.7071 47.7071C32.5196 47.8946 32.2652 48 32 48C31.7348 48 31.4804 47.8946 31.2929 47.7071C31.1054 47.5196 31 47.2652 31 47V43C31 42.7348 31.1054 42.4804 31.2929 42.2929C31.4804 42.1054 31.7348 42 32 42ZM48 32C48 32.2652 47.8946 32.5196 47.7071 32.7071C47.5196 32.8946 47.2652 33 47 33H43C42.7348 33 42.4804 32.8946 42.2929 32.7071C42.1054 32.5196 42 32.2652 42 32C42 31.7348 42.1054 31.4804 42.2929 31.2929C42.4804 31.1054 42.7348 31 43 31H47C47.2652 31 47.5196 31.1054 47.7071 31.2929C47.8946 31.4804 48 31.7348 48 32ZM22 32C22 32.2652 21.8946 32.5196 21.7071 32.7071C21.5196 32.8946 21.2652 33 21 33H17C16.7348 33 16.4804 32.8946 16.2929 32.7071C16.1054 32.5196 16 32.2652 16 32C16 31.7348 16.1054 31.4804 16.2929 31.2929C16.4804 31.1054 16.7348 31 17 31H21C21.2652 31 21.5196 31.1054 21.7071 31.2929C21.8946 31.4804 22 31.7348 22 32ZM43.314 20.686C43.5015 20.8735 43.6068 21.1278 43.6068 21.393C43.6068 21.6582 43.5015 21.9125 43.314 22.1L40.486 24.93C40.393 25.0228 40.2827 25.0965 40.1612 25.1467C40.0398 25.1969 39.9097 25.2226 39.7783 25.2226C39.5129 25.2224 39.2585 25.1168 39.071 24.929C38.9782 24.836 38.9045 24.7257 38.8543 24.6042C38.8041 24.4828 38.7784 24.3527 38.7784 24.2213C38.7786 23.9559 38.8842 23.7015 39.072 23.514L41.9 20.686C42.0875 20.4985 42.3418 20.3932 42.607 20.3932C42.8722 20.3932 43.1265 20.4985 43.314 20.686ZM24.928 39.072C25.1155 39.2595 25.2208 39.5138 25.2208 39.779C25.2208 40.0442 25.1155 40.2985 24.928 40.486L22.1 43.314C21.9114 43.4962 21.6588 43.597 21.3966 43.5947C21.1344 43.5924 20.8836 43.4872 20.6982 43.3018C20.5128 43.1164 20.4076 42.8656 20.4053 42.6034C20.403 42.3412 20.5038 42.0886 20.686 41.9L23.514 39.072C23.7015 38.8845 23.9558 38.7792 24.221 38.7792C24.4862 38.7792 24.7405 38.8845 24.928 39.072ZM43.314 43.314C43.1265 43.5015 42.8722 43.6068 42.607 43.6068C42.3418 43.6068 42.0875 43.5015 41.9 43.314L39.072 40.486C38.8898 40.2974 38.789 40.0448 38.7913 39.7826C38.7936 39.5204 38.8988 39.2696 39.0842 39.0842C39.2696 38.8988 39.5204 38.7936 39.7826 38.7913C40.0448 38.789 40.2974 38.8898 40.486 39.072L43.314 41.9C43.5015 42.0875 43.6068 42.3418 43.6068 42.607C43.6068 42.8722 43.5015 43.1265 43.314 43.314ZM24.928 24.93C24.7405 25.1175 24.4862 25.2228 24.221 25.2228C23.9558 25.2228 23.7015 25.1175 23.514 24.93L20.686 22.1C20.5905 22.0078 20.5143 21.8974 20.4619 21.7754C20.4095 21.6534 20.3819 21.5222 20.3807 21.3894C20.3796 21.2566 20.4049 21.1249 20.4552 21.002C20.5055 20.8791 20.5797 20.7675 20.6736 20.6736C20.7675 20.5797 20.8791 20.5055 21.002 20.4552C21.1249 20.4049 21.2566 20.3796 21.3894 20.3807C21.5222 20.3819 21.6534 20.4095 21.7754 20.4619C21.8974 20.5143 22.0078 20.5905 22.1 20.686L24.928 23.514C25.0211 23.6069 25.095 23.7172 25.1454 23.8387C25.1958 23.9602 25.2218 24.0905 25.2218 24.222C25.2218 24.3535 25.1958 24.4838 25.1454 24.6053C25.095 24.7268 25.0211 24.8371 24.928 24.93Z"
            fill="black" />
    </g>
</svg>